<svg xmlns="http://www.w3.org/2000/svg" xmlns:xlink="http://www.w3.org/1999/xlink" width="1992.3134" height="1300.3234" viewBox="0 0 1992.3134 1300.3234"><defs><style>.cls-1{opacity:0.81;}.cls-2,.cls-4,.cls-5,.cls-6,.cls-7,.cls-8{stroke:#000;}.cls-2,.cls-8{stroke-miterlimit:10;}.cls-3,.cls-8{opacity:0.9;}.cls-4,.cls-5,.cls-6,.cls-7{stroke-linejoin:round;}.cls-4,.cls-5,.cls-6,.cls-7,.cls-8{stroke-width:12px;}.cls-4{fill:url(#linear-gradient);}.cls-5{fill:url(#linear-gradient-2);}.cls-6{fill:url(#linear-gradient-3);}.cls-7{fill:url(#linear-gradient-4);}.cls-8{fill:none;}</style><linearGradient id="linear-gradient" x1="-22.961" y1="502.5803" x2="296.2798" y2="502.5803" gradientTransform="translate(1965.2654 1297.6776) rotate(180)" gradientUnits="userSpaceOnUse"><stop offset="0" stop-color="#fff"/><stop offset="1"/></linearGradient><linearGradient id="linear-gradient-2" x1="-22.961" y1="798.4191" x2="296.2798" y2="798.4191" xlink:href="#linear-gradient"/><linearGradient id="linear-gradient-3" x1="-134.607" y1="502.5803" x2="184.6338" y2="502.5803" gradientTransform="matrix(1, 0, 0, -1, 138.694, 1297.6776)" xlink:href="#linear-gradient"/><linearGradient id="linear-gradient-4" x1="-134.607" y1="798.4191" x2="184.6338" y2="798.4191" gradientTransform="matrix(1, 0, 0, -1, 138.694, 1297.6776)" xlink:href="#linear-gradient"/></defs><title>mb_light</title><g id="Layer_2" data-name="Layer 2"><g id="Layer_1-2" data-name="Layer 1"><g class="cls-1"><path d="M477.5263,344.6917h65.4023L767.6449,877.9729h2.0962L994.4574,344.6917h65.8213V949.6643h-53.6631V452.0188H979.3642l64.145-94.3306L793.6381,949.6643h-49.89L493.8769,357.6882l64.145,94.3306h-27.251V949.6643H477.5263Z"/><path class="cls-2" d="M477.5263,344.6917h65.4023L767.6449,877.9729h2.0962L994.4574,344.6917h65.8213V949.6643h-53.6631V452.0188H979.3642l64.145-94.3306L793.6381,949.6643h-49.89L493.8769,357.6882l64.145,94.3306h-27.251V949.6643H477.5263Z"/><path class="cls-2" d="M1091.767,344.6917h57.0176V949.6643H1091.767Zm28.5088,554.2441h178.18q78.8145,0,118.4365-30.6055,39.62-30.5976,39.6192-86.3642v-.8389q0-38.1446-19.2852-64.5635-19.2891-26.4126-55.76-40.038-36.4746-13.62-88.042-13.626H1120.2758V613.4285H1278.75q69.5889,0,108.585-29.7661,38.99-29.7635,38.99-83.43v-.8384q0-49.0518-34.5879-76.5127-34.5879-27.454-96.6367-27.46H1120.2758v-50.729h186.9834q53.2383,0,92.8633,18.6567,39.6182,18.6592,61.6289,52.1958,22.0107,33.5464,22.0107,78.3994v.8384a138.4124,138.4124,0,0,1-54.7119,111.1q-25.7828,19.7116-59.7422,25.5742v1.2578q42.7632,5.031,75.6739,24.9453,32.9076,19.9176,51.3574,51.7764,18.4438,31.8662,18.4472,73.7881v.8379q0,51.5669-24.1064,88.6709-24.1143,37.1029-70.4336,57.0176-46.33,19.9174-113.8262,19.914H1120.2758Z"/></g><g class="cls-3"><line class="cls-4" x1="1988.2264" y1="646.5862" x2="1668.9856" y2="943.6083"/><line class="cls-5" x1="1988.2264" y1="647.7696" x2="1668.9856" y2="350.7475"/><line class="cls-6" x1="4.087" y1="646.5862" x2="323.3278" y2="943.6083"/><line class="cls-7" x1="4.087" y1="647.7696" x2="323.3278" y2="350.7475"/></g><line class="cls-8" x1="810.4253" y1="434.7401" x2="1261.5746" y2="4.3413"/><line class="cls-8" x1="530.7887" y1="1295.9628" x2="928.9578" y2="919.6445"/></g></g></svg>